<svg width="30" height="34" viewBox="0 0 30 34" fill="none" xmlns="http://www.w3.org/2000/svg">
<path d="M28.8559 8.43197C28.8251 8.43197 28.7789 8.43197 28.7328 8.43197C20.5931 7.61647 12.4689 7.30873 4.42153 8.12423L1.28261 8.43197C0.636365 8.49352 0.0670523 8.03191 0.00550492 7.38566C-0.0560424 6.73942 0.405563 6.18549 1.03642 6.12394L4.17534 5.81621C12.3612 4.98532 20.6547 5.30844 28.9636 6.12394C29.5944 6.18549 30.056 6.7548 29.9945 7.38566C29.9483 7.98575 29.4406 8.43197 28.8559 8.43197Z" fill="#292D32"/>
<path d="M9.62391 6.87792C9.56236 6.87792 9.50081 6.87792 9.42388 6.86253C8.8084 6.75482 8.37757 6.15473 8.48528 5.53926L8.82379 3.52359C9.06998 2.04645 9.40849 0 12.9936 0H17.0249C20.6254 0 20.9639 2.12338 21.1947 3.53897L21.5333 5.53926C21.641 6.17012 21.2101 6.77021 20.5947 6.86253C19.9638 6.97024 19.3637 6.53941 19.2714 5.92393L18.9329 3.92364C18.7175 2.58499 18.6713 2.32341 17.0403 2.32341H13.0089C11.378 2.32341 11.3472 2.53883 11.1164 3.90826L10.7625 5.90855C10.6702 6.47786 10.1778 6.87792 9.62391 6.87792Z" fill="#292D32"/>
<path d="M19.9477 33.0819H10.0693C4.69934 33.0819 4.48392 30.1122 4.31467 27.7119L3.31452 12.2173C3.26836 11.5864 3.76074 11.0325 4.3916 10.9863C5.03785 10.9556 5.57639 11.4326 5.62255 12.0634L6.62269 27.558C6.79195 29.8968 6.8535 30.7738 10.0693 30.7738H19.9477C23.1789 30.7738 23.2405 29.8968 23.3944 27.558L24.3945 12.0634C24.4407 11.4326 24.9946 10.9556 25.6255 10.9863C26.2563 11.0325 26.7487 11.571 26.7025 12.2173L25.7024 27.7119C25.5331 30.1122 25.3177 33.0819 19.9477 33.0819Z" fill="#292D32"/>
<path d="M17.5625 24.6189H12.4387C11.8078 24.6189 11.2847 24.0958 11.2847 23.4649C11.2847 22.834 11.8078 22.3109 12.4387 22.3109H17.5625C18.1934 22.3109 18.7165 22.834 18.7165 23.4649C18.7165 24.0958 18.1934 24.6189 17.5625 24.6189Z" fill="#292D32"/>
<path d="M18.8548 18.4642H11.1613C10.5305 18.4642 10.0073 17.9411 10.0073 17.3102C10.0073 16.6793 10.5305 16.1562 11.1613 16.1562H18.8548C19.4856 16.1562 20.0088 16.6793 20.0088 17.3102C20.0088 17.9411 19.4856 18.4642 18.8548 18.4642Z" fill="#292D32"/>
</svg>
