<svg width="160" height="60" viewBox="0 0 160 60" fill="none" xmlns="http://www.w3.org/2000/svg">
<path d="M39.625 10H9C6.58375 10 4.625 11.9898 4.625 14.4444V45.5556C4.625 48.0102 6.58375 50 9 50H39.625C42.0412 50 44 48.0102 44 45.5556V14.4444C44 11.9898 42.0412 10 39.625 10Z" fill="#8D8B8B"/>
<path d="M2 32.6185L11.3338 40.3453C13.7395 42.3368 14.9432 43.3333 16.4375 43.3333C17.9318 43.3333 19.1355 42.3368 21.5412 40.3453L30.875 32.6185M2 20.6666L11.3338 28.3935C13.7395 30.385 14.9432 31.3815 16.4375 31.3815C17.9318 31.3815 19.1355 30.385 21.5412 28.3935L30.875 20.6666" stroke="white" stroke-width="3" stroke-linecap="round" stroke-linejoin="round"/>
<path d="M61.836 39.336C59.132 39.336 57.068 38.584 55.644 37.08C54.236 35.576 53.532 33.44 53.532 30.672C53.532 29.296 53.748 28.072 54.18 27C54.612 25.912 55.204 25 55.956 24.264C56.708 23.512 57.604 22.944 58.644 22.56C59.684 22.176 60.812 21.984 62.028 21.984C62.732 21.984 63.372 22.04 63.948 22.152C64.524 22.248 65.028 22.368 65.46 22.512C65.892 22.64 66.252 22.776 66.54 22.92C66.828 23.064 67.036 23.176 67.164 23.256L66.084 26.28C65.572 26.008 64.972 25.776 64.284 25.584C63.612 25.392 62.844 25.296 61.98 25.296C61.404 25.296 60.836 25.392 60.276 25.584C59.732 25.776 59.244 26.088 58.812 26.52C58.396 26.936 58.06 27.48 57.804 28.152C57.548 28.824 57.42 29.64 57.42 30.6C57.42 31.368 57.5 32.088 57.66 32.76C57.836 33.416 58.108 33.984 58.476 34.464C58.86 34.944 59.356 35.328 59.964 35.616C60.572 35.888 61.308 36.024 62.172 36.024C62.716 36.024 63.204 35.992 63.636 35.928C64.068 35.864 64.452 35.792 64.788 35.712C65.124 35.616 65.42 35.512 65.676 35.4C65.932 35.288 66.164 35.184 66.372 35.088L67.404 38.088C66.876 38.408 66.132 38.696 65.172 38.952C64.212 39.208 63.1 39.336 61.836 39.336ZM69.5745 39V20.952L73.1505 20.376V26.424C73.3905 26.344 73.6945 26.272 74.0625 26.208C74.4465 26.128 74.8145 26.088 75.1665 26.088C76.1905 26.088 77.0385 26.232 77.7105 26.52C78.3985 26.792 78.9425 27.184 79.3425 27.696C79.7585 28.208 80.0465 28.816 80.2065 29.52C80.3825 30.224 80.4705 31.008 80.4705 31.872V39H76.8945V32.304C76.8945 31.152 76.7425 30.336 76.4385 29.856C76.1505 29.376 75.6065 29.136 74.8065 29.136C74.4865 29.136 74.1825 29.168 73.8945 29.232C73.6225 29.28 73.3745 29.336 73.1505 29.4V39H69.5745ZM83.1073 32.784C83.1073 31.664 83.2753 30.688 83.6113 29.856C83.9633 29.008 84.4193 28.304 84.9793 27.744C85.5393 27.184 86.1793 26.76 86.8993 26.472C87.6353 26.184 88.3873 26.04 89.1553 26.04C90.9473 26.04 92.3633 26.592 93.4033 27.696C94.4433 28.784 94.9633 30.392 94.9633 32.52C94.9633 32.728 94.9553 32.96 94.9393 33.216C94.9233 33.456 94.9073 33.672 94.8913 33.864H86.7793C86.8593 34.6 87.2033 35.184 87.8113 35.616C88.4193 36.048 89.2353 36.264 90.2593 36.264C90.9153 36.264 91.5553 36.208 92.1793 36.096C92.8193 35.968 93.3393 35.816 93.7393 35.64L94.2193 38.544C94.0273 38.64 93.7713 38.736 93.4513 38.832C93.1313 38.928 92.7713 39.008 92.3713 39.072C91.9873 39.152 91.5713 39.216 91.1233 39.264C90.6753 39.312 90.2273 39.336 89.7793 39.336C88.6433 39.336 87.6513 39.168 86.8033 38.832C85.9713 38.496 85.2753 38.04 84.7153 37.464C84.1713 36.872 83.7633 36.176 83.4913 35.376C83.2353 34.576 83.1073 33.712 83.1073 32.784ZM91.5073 31.416C91.4913 31.112 91.4353 30.816 91.3393 30.528C91.2593 30.24 91.1233 29.984 90.9313 29.76C90.7553 29.536 90.5233 29.352 90.2353 29.208C89.9633 29.064 89.6193 28.992 89.2033 28.992C88.8033 28.992 88.4593 29.064 88.1713 29.208C87.8833 29.336 87.6433 29.512 87.4513 29.736C87.2593 29.96 87.1073 30.224 86.9953 30.528C86.8993 30.816 86.8273 31.112 86.7793 31.416H91.5073ZM101.347 36.432C102.003 36.432 102.467 36.368 102.739 36.24C103.011 36.112 103.147 35.864 103.147 35.496C103.147 35.208 102.971 34.96 102.619 34.752C102.267 34.528 101.731 34.28 101.011 34.008C100.451 33.8 99.939 33.584 99.475 33.36C99.027 33.136 98.643 32.872 98.323 32.568C98.003 32.248 97.755 31.872 97.579 31.44C97.403 31.008 97.315 30.488 97.315 29.88C97.315 28.696 97.755 27.76 98.635 27.072C99.515 26.384 100.723 26.04 102.259 26.04C103.027 26.04 103.763 26.112 104.467 26.256C105.171 26.384 105.731 26.528 106.147 26.688L105.523 29.472C105.107 29.328 104.651 29.2 104.155 29.088C103.675 28.976 103.131 28.92 102.523 28.92C101.403 28.92 100.843 29.232 100.843 29.856C100.843 30 100.867 30.128 100.915 30.24C100.963 30.352 101.059 30.464 101.203 30.576C101.347 30.672 101.539 30.784 101.779 30.912C102.035 31.024 102.355 31.152 102.739 31.296C103.523 31.584 104.171 31.872 104.683 32.16C105.195 32.432 105.595 32.736 105.883 33.072C106.187 33.392 106.395 33.752 106.507 34.152C106.635 34.552 106.699 35.016 106.699 35.544C106.699 36.792 106.227 37.736 105.283 38.376C104.355 39.016 103.035 39.336 101.323 39.336C100.203 39.336 99.267 39.24 98.515 39.048C97.779 38.856 97.267 38.696 96.979 38.568L97.579 35.664C98.187 35.904 98.811 36.096 99.451 36.24C100.091 36.368 100.723 36.432 101.347 36.432ZM109.371 39V20.952L112.947 20.376V26.424C113.187 26.344 113.491 26.272 113.859 26.208C114.243 26.128 114.611 26.088 114.963 26.088C115.987 26.088 116.835 26.232 117.507 26.52C118.195 26.792 118.739 27.184 119.139 27.696C119.555 28.208 119.843 28.816 120.003 29.52C120.179 30.224 120.267 31.008 120.267 31.872V39H116.691V32.304C116.691 31.152 116.539 30.336 116.235 29.856C115.947 29.376 115.403 29.136 114.603 29.136C114.283 29.136 113.979 29.168 113.691 29.232C113.419 29.28 113.171 29.336 112.947 29.4V39H109.371ZM127.08 39H123.504V26.376H127.08V39ZM127.416 22.728C127.416 23.384 127.2 23.904 126.768 24.288C126.352 24.656 125.856 24.84 125.28 24.84C124.704 24.84 124.2 24.656 123.768 24.288C123.352 23.904 123.144 23.384 123.144 22.728C123.144 22.072 123.352 21.56 123.768 21.192C124.2 20.808 124.704 20.616 125.28 20.616C125.856 20.616 126.352 20.808 126.768 21.192C127.2 21.56 127.416 22.072 127.416 22.728ZM138.05 29.544C137.73 29.464 137.354 29.384 136.922 29.304C136.49 29.208 136.026 29.16 135.53 29.16C135.306 29.16 135.034 29.184 134.714 29.232C134.41 29.264 134.178 29.304 134.018 29.352V39H130.442V27.048C131.082 26.824 131.834 26.616 132.698 26.424C133.578 26.216 134.554 26.112 135.626 26.112C135.818 26.112 136.05 26.128 136.322 26.16C136.594 26.176 136.866 26.208 137.138 26.256C137.41 26.288 137.682 26.336 137.954 26.4C138.226 26.448 138.458 26.512 138.65 26.592L138.05 29.544ZM139.732 32.784C139.732 31.664 139.9 30.688 140.236 29.856C140.588 29.008 141.044 28.304 141.604 27.744C142.164 27.184 142.804 26.76 143.524 26.472C144.26 26.184 145.012 26.04 145.78 26.04C147.572 26.04 148.988 26.592 150.028 27.696C151.068 28.784 151.588 30.392 151.588 32.52C151.588 32.728 151.58 32.96 151.564 33.216C151.548 33.456 151.532 33.672 151.516 33.864H143.404C143.484 34.6 143.828 35.184 144.436 35.616C145.044 36.048 145.86 36.264 146.884 36.264C147.54 36.264 148.18 36.208 148.804 36.096C149.444 35.968 149.964 35.816 150.364 35.64L150.844 38.544C150.652 38.64 150.396 38.736 150.076 38.832C149.756 38.928 149.396 39.008 148.996 39.072C148.612 39.152 148.196 39.216 147.748 39.264C147.3 39.312 146.852 39.336 146.404 39.336C145.268 39.336 144.276 39.168 143.428 38.832C142.596 38.496 141.9 38.04 141.34 37.464C140.796 36.872 140.388 36.176 140.116 35.376C139.86 34.576 139.732 33.712 139.732 32.784ZM148.132 31.416C148.116 31.112 148.06 30.816 147.964 30.528C147.884 30.24 147.748 29.984 147.556 29.76C147.38 29.536 147.148 29.352 146.86 29.208C146.588 29.064 146.244 28.992 145.828 28.992C145.428 28.992 145.084 29.064 144.796 29.208C144.508 29.336 144.268 29.512 144.076 29.736C143.884 29.96 143.732 30.224 143.62 30.528C143.524 30.816 143.452 31.112 143.404 31.416H148.132Z" fill="#1E1E1E"/>
</svg>
