<svg width="32" height="30" viewBox="0 0 32 30" fill="none" xmlns="http://www.w3.org/2000/svg">
<path d="M28.6667 0H5.33333C3.49238 0 2 1.49238 2 3.33333V26.6667C2 28.5076 3.49238 30 5.33333 30H28.6667C30.5076 30 32 28.5076 32 26.6667V3.33333C32 1.49238 30.5076 0 28.6667 0Z" fill="#8D8B8B"/>
<path d="M0 16.9639L7.1115 22.759C8.94437 24.2526 9.8615 25 11 25C12.1385 25 13.0556 24.2526 14.8885 22.759L22 16.9639M0 8L7.1115 13.7951C8.94437 15.2888 9.8615 16.0361 11 16.0361C12.1385 16.0361 13.0556 15.2888 14.8885 13.7951L22 8" stroke="white" stroke-width="3" stroke-linecap="round" stroke-linejoin="round"/>
</svg>
